<?xml version="1.0" encoding="UTF-8" standalone="no"?>
<svg
   version="1.1"
   id="Layer_1"
   x="0px"
   y="0px"
   viewBox="0 0 124.17548 101.78523"
   xml:space="preserve"
   sodipodi:docname="icon.svg"
   width="124.17548"
   height="101.78525"
   inkscape:version="1.3.2 (091e20e, 2023-11-25, custom)"
   xmlns:inkscape="http://www.inkscape.org/namespaces/inkscape"
   xmlns:sodipodi="http://sodipodi.sourceforge.net/DTD/sodipodi-0.dtd"
   xmlns="http://www.w3.org/2000/svg"
   xmlns:svg="http://www.w3.org/2000/svg"><defs
     id="defs11" /><sodipodi:namedview
     id="namedview11"
     pagecolor="#000000"
     bordercolor="#000000"
     borderopacity="0.25"
     inkscape:showpageshadow="2"
     inkscape:pageopacity="0.0"
     inkscape:pagecheckerboard="0"
     inkscape:deskcolor="#d1d1d1"
     inkscape:zoom="5.4034284"
     inkscape:cx="51.171216"
     inkscape:cy="22.670792"
     inkscape:window-width="1920"
     inkscape:window-height="1017"
     inkscape:window-x="-8"
     inkscape:window-y="-8"
     inkscape:window-maximized="1"
     inkscape:current-layer="Layer_1" /><style
     type="text/css"
     id="style1"><![CDATA[
	.st0{fill:#4CAF50;}
	.st1{fill:#2196F3;}
	.st2{fill:#F44336;}
	.st3{fill:#262626;}
	.st4{fill:#FFD54F;}
	.st5{fill-rule:evenodd;clip-rule:evenodd;fill:#262626;}
	.st6{fill-rule:evenodd;clip-rule:evenodd;fill:#FFFFFF;}
]]></style><ellipse
     style="fill:#365636;fill-opacity:1;stroke:#232323;stroke-width:1.79865;stroke-linecap:round;stroke-linejoin:round;stroke-miterlimit:15;stroke-opacity:1"
     id="path13"
     cx="62.13319"
     cy="53.830082"
     rx="25.454319"
     ry="22.026478" /><path
     fill-rule="evenodd"
     clip-rule="evenodd"
     d="m 101.88911,12.714205 8.77815,7.179507 c 2.31051,1.889519 2.31051,4.980647 0,6.870165 l -7.0689,5.780903 c 1.95014,2.977985 3.43837,6.187961 4.38508,9.567269 h 9.15743 c 3.26817,0 5.94203,2.186687 5.94203,4.858549 v 10.152616 c 0,2.672659 -2.67386,4.859343 -5.94203,4.859343 h -9.99362 c -1.22544,3.307665 -2.97848,6.428111 -5.1805,9.295346 l 6.48258,5.299772 c 2.31051,1.891143 2.31051,4.982272 0,6.870996 l -8.77816,7.179507 c -2.310508,1.88872 -6.091346,1.88872 -8.40086,0 l -7.069912,-5.7817 c -3.640476,1.595602 -7.566659,2.8135 -11.699899,3.586919 v 7.488848 c 0,2.671896 -2.672867,4.858545 -5.94103,4.858545 h -12.41366 c -3.268169,0 -5.942032,-2.186649 -5.942032,-4.858545 v -8.17271 c -4.04464,-1.002956 -7.860322,-2.436589 -11.365415,-4.237377 l -6.481578,5.301397 c -2.312505,1.889518 -6.092354,1.889518 -8.402863,0 l -8.778158,-7.178711 c -2.310513,-1.889518 -2.310513,-4.980645 0,-6.870166 l 7.069911,-5.781697 C 18.294529,66.005824 16.80529,62.795814 15.860576,59.41651 H 6.7001528 c -3.2671674,0 -5.94103243,-2.185859 -5.94103243,-4.858515 V 44.405376 c 0,-2.672691 2.67386503,-4.858549 5.94103243,-4.858549 h 9.9936382 c 1.226439,-3.307662 2.979483,-6.428112 5.180488,-9.295344 l -6.481577,-5.299772 c -2.310514,-1.890348 -2.310514,-4.982273 0,-6.870993 l 8.779151,-7.179509 c 2.310514,-1.8895171 6.090359,-1.8895171 8.400873,0 l 7.068915,5.780902 c 3.64147,-1.595633 7.566656,-2.813528 11.699897,-3.586919 V 5.6063113 c 0,-2.6726906 2.673865,-4.8593439 5.941035,-4.8593439 h 12.414652 c 3.26717,0 5.941035,2.1866533 5.941035,4.8593439 v 8.1702907 c 4.045636,1.002158 7.862313,2.435758 11.370394,4.236548 l 6.477601,-5.298945 c 2.3125,-1.88952 6.092335,-1.88952 8.402855,0 z M 61.921515,30.803431 c 13.478821,0 24.408217,8.938801 24.408217,19.960864 0,11.021234 -10.929396,19.960833 -24.408217,19.960833 -13.477826,0 -24.408214,-8.938768 -24.408214,-19.960833 0,-11.022063 10.930388,-19.960864 24.408214,-19.960864 z"
     id="path1-0"
     style="display:inline;fill:#67ac79;fill-opacity:1;stroke-width:0.900233" /><g
     transform="matrix(0.08980541,0,0,0.08980541,14.928804,-2.0669807)"
     id="g7" /><path
     style="fill:none;stroke:#ffffff;stroke-width:1.67634;stroke-linecap:round;stroke-linejoin:round;stroke-miterlimit:15;stroke-opacity:1"
     d="m 18.99485,64.80028 11.03905,1.786247 1.647027,6.363076 17.64671,1.818022 1.647027,-6.544879 17.411422,-0.545405 2.117605,6.363076 18.11729,-1.090814 0.941157,-6.181275 15.058522,-1.272615"
     id="path11"
     sodipodi:nodetypes="cccccccccc" /><ellipse
     style="display:inline;fill:#414042;fill-opacity:1;stroke:#ffffff;stroke-width:1.5;stroke-linecap:round;stroke-linejoin:round;stroke-miterlimit:15;stroke-opacity:1"
     id="path12"
     cx="28.01643"
     cy="43.763062"
     rx="7.4027076"
     ry="7.3101735" /><ellipse
     style="fill:#414042;fill-opacity:1;stroke:#ffffff;stroke-width:1.5;stroke-linecap:round;stroke-linejoin:round;stroke-miterlimit:15;stroke-opacity:1"
     id="path12-2"
     cx="96.497643"
     cy="41.737759"
     rx="7.4027076"
     ry="7.3101735" /><path
     d="m 59.309169,56.078206 c 0,3.148848 5.371564,3.148848 5.371564,0 v -7.964731 c 0,-3.148848 -5.371564,-3.148848 -5.371564,0 z"
     id="path3"
     style="display:inline;fill:#fcfcfc;fill-opacity:1;stroke-width:0.0926132" /></svg>
