<?xml version="1.0" encoding="UTF-8" standalone="no"?>
<svg
   width="128"
   height="128"
   version="1.1"
   id="svg6"
   sodipodi:docname="icon.svg"
   xml:space="preserve"
   inkscape:version="1.3.2 (091e20e, 2023-11-25, custom)"
   xmlns:inkscape="http://www.inkscape.org/namespaces/inkscape"
   xmlns:sodipodi="http://sodipodi.sourceforge.net/DTD/sodipodi-0.dtd"
   xmlns="http://www.w3.org/2000/svg"
   xmlns:svg="http://www.w3.org/2000/svg"><defs
     id="defs6" /><sodipodi:namedview
     id="namedview6"
     pagecolor="#ffffff"
     bordercolor="#000000"
     borderopacity="0.25"
     inkscape:showpageshadow="2"
     inkscape:pageopacity="0.0"
     inkscape:pagecheckerboard="0"
     inkscape:deskcolor="#d1d1d1"
     inkscape:zoom="6.4140625"
     inkscape:cx="54.957369"
     inkscape:cy="71.951279"
     inkscape:window-width="1920"
     inkscape:window-height="1017"
     inkscape:window-x="-8"
     inkscape:window-y="-8"
     inkscape:window-maximized="1"
     inkscape:current-layer="g4" /><g
     fill="#fff"
     transform="translate(12.322 12.322)scale(.101)"
     id="g4"><path
       d="M105 673v33q407 354 814 0v-33z"
       id="path1" /><path
       fill="#478cbf"
       d="m105 673 152 14q12 1 15 14l4 67 132 10 8-61q2-11 15-15h162q13 4 15 15l8 61 132-10 4-67q3-13 15-14l152-14V427q30-39 56-81-35-59-83-108-43 20-82 47-40-37-88-64 7-51 8-102-59-28-123-42-26 43-46 89-49-7-98 0-20-46-46-89-64 14-123 42 1 51 8 102-48 27-88 64-39-27-82-47-48 49-83 108 26 42 56 81zm0 33v39c0 276 813 276 814 0v-39l-134 12-5 69q-2 10-14 13l-162 11q-12 0-16-11l-10-65H446l-10 65q-4 11-16 11l-162-11q-12-3-14-13l-5-69z"
       id="path2"
       style="fill:#34a075;fill-opacity:1" /><path
       fill-rule="evenodd"
       clip-rule="evenodd"
       d="m 564.75687,470.02794 11.49137,12.51637 c 3.02466,3.29409 3.02466,8.68298 0,11.97705 l -9.25382,10.07811 c 2.55292,5.19162 4.50115,10.78772 5.74046,16.67903 h 11.98788 c 4.27832,0 7.77864,3.81211 7.77864,8.47009 v 17.69947 c 0,4.65941 -3.50032,8.47151 -7.77864,8.47151 h -13.08254 c -1.6042,5.76642 -3.89909,11.20642 -6.78169,16.20502 l 8.48624,9.2393 c 3.02466,3.29693 3.02466,8.68584 0,11.9785 l -11.49137,12.51637 c -3.02466,3.29265 -7.97411,3.29265 -10.99745,0 l -9.25514,-10.07951 c -4.76571,2.78172 -9.90541,4.90493 -15.31618,6.25321 v 13.0557 c 0,4.65796 -3.49902,8.47008 -7.77733,8.47008 h -16.25055 c -4.27831,0 -7.77863,-3.81212 -7.77863,-8.47008 v -14.24787 c -5.29479,-1.74853 -10.28985,-4.24783 -14.87831,-7.38719 l -8.48495,9.24214 c -3.02727,3.29409 -7.97543,3.29409 -11.00008,0 l -11.49137,-12.51495 c -3.02466,-3.29407 -3.02466,-8.68296 0,-11.97706 l 9.25512,-10.07951 c -2.55421,-5.1902 -4.50375,-10.78631 -5.74046,-16.67762 h -11.99178 c -4.27702,0 -7.77734,-3.8107 -7.77734,-8.47009 v -17.69946 c 0,-4.65942 3.50032,-8.4701 7.77734,-8.4701 h 13.08253 c 1.60551,-5.76643 3.9004,-11.20641 6.7817,-16.20501 l -8.48494,-9.23933 c -3.02466,-3.2955 -3.02466,-8.6858 0,-11.97847 l 11.49267,-12.51637 c 3.02465,-3.29407 7.97281,-3.29407 10.99748,0 l 9.25381,10.07809 c 4.767,-2.78172 9.90541,-4.90493 15.31618,-6.25321 v -13.05569 c 0,-4.6594 3.50032,-8.47151 7.77732,-8.47151 h 16.25185 c 4.27702,0 7.77734,3.81211 7.77734,8.47151 v 14.24361 c 5.2961,1.74709 10.29245,4.24638 14.88483,7.38577 l 8.47975,-9.2379 c 3.02726,-3.29409 7.9754,-3.29409 11.00006,0 z m -52.32105,31.53576 c 17.64496,0 31.95248,15.58336 31.95248,34.79861 0,19.2138 -14.30752,34.79861 -31.95248,34.79861 -17.64364,0 -31.95247,-15.58339 -31.95247,-34.79861 0,-19.21525 14.30883,-34.79861 31.95247,-34.79861 z"
       id="path1-1"
       style="stroke-width:1.35997" /><circle
       cx="725"
       cy="526"
       r="90"
       id="circle3"
       style="display:inline" /><circle
       cx="299"
       cy="526"
       r="90"
       id="circle4"
       style="display:inline" /></g><g
     fill="#414042"
     transform="translate(12.322 12.322)scale(.101)"
     id="g6"><circle
       cx="307"
       cy="532"
       r="60"
       id="circle5" /><circle
       cx="717"
       cy="532"
       r="60"
       id="circle6"
       style="display:inline" /></g></svg>
